# Blender 4.5.0
# www.blender.org
mtllib chair.mtl
o Cube
v -0.205000 0.450000 0.175000
v -0.205000 0.400000 -0.175000
v 0.205000 0.450000 0.175000
v 0.205000 0.400000 -0.175000
v -0.205000 0.450000 -0.225000
v 0.205000 0.450000 -0.225000
v -0.205000 0.900000 -0.275000
v 0.205000 0.900000 -0.275000
v -0.205000 0.400000 0.225000
v 0.205000 0.400000 0.225000
v 0.225000 0.400000 -0.175000
v 0.225000 0.450000 0.175000
v 0.225000 0.450000 -0.225000
v 0.225000 0.900000 -0.275000
v 0.225000 0.400000 0.225000
v -0.225000 0.400000 -0.175000
v -0.225000 0.450000 0.175000
v -0.225000 0.450000 -0.225000
v -0.225000 0.900000 -0.275000
v -0.225000 0.400000 0.225000
v -0.205000 0.360000 0.175000
v -0.205000 0.400000 0.135000
v -0.205000 0.380000 0.169641
v -0.205000 0.394641 0.155000
v 0.205000 0.400000 0.135000
v 0.205000 0.360000 0.175000
v 0.205000 0.394641 0.155000
v 0.205000 0.380000 0.169641
v -0.205000 0.450000 0.185000
v -0.205000 0.410000 0.225000
v -0.205000 0.444641 0.205000
v -0.205000 0.430000 0.219641
v 0.205000 0.410000 0.225000
v 0.205000 0.450000 0.185000
v 0.205000 0.430000 0.219641
v 0.205000 0.444641 0.205000
v 0.225000 0.360000 0.175000
v 0.225000 0.400000 0.135000
v 0.225000 0.440000 0.175000
v 0.225000 0.400000 0.215000
v 0.225000 0.380000 0.169641
v 0.225000 0.394641 0.155000
v 0.225000 0.450000 0.185000
v 0.225000 0.410000 0.225000
v 0.225000 0.444641 0.205000
v 0.225000 0.430000 0.219641
v -0.225000 0.400000 0.135000
v -0.225000 0.360000 0.175000
v -0.225000 0.400000 0.215000
v -0.225000 0.440000 0.175000
v -0.225000 0.394641 0.155000
v -0.225000 0.380000 0.169641
v -0.225000 0.410000 0.225000
v -0.225000 0.450000 0.185000
v -0.225000 0.430000 0.219641
v -0.225000 0.444641 0.205000
v -0.205000 0.450000 -0.135000
v -0.205000 0.490000 -0.175000
v -0.205000 0.455359 -0.155000
v -0.205000 0.470000 -0.169641
v 0.205000 0.450000 -0.135000
v 0.205000 0.490000 -0.175000
v 0.205000 0.455359 -0.155000
v 0.205000 0.470000 -0.169641
v -0.205000 0.400000 -0.185000
v -0.205000 0.440000 -0.225000
v -0.203775 0.400000 -0.225000
v -0.205000 0.360000 -0.225000
v -0.205000 0.405359 -0.205000
v -0.205000 0.420000 -0.219641
v 0.205000 0.440000 -0.225000
v 0.205000 0.400000 -0.185000
v 0.205000 0.360000 -0.225000
v 0.203775 0.400000 -0.225000
v 0.205000 0.420000 -0.219641
v 0.205000 0.405359 -0.205000
v 0.225000 0.490000 -0.175000
v 0.225000 0.450000 -0.135000
v 0.225000 0.410000 -0.175000
v 0.225000 0.450000 -0.215000
v 0.225000 0.470000 -0.169641
v 0.225000 0.455359 -0.155000
v 0.225000 0.400000 -0.185000
v 0.225000 0.440000 -0.225000
v 0.225000 0.405359 -0.205000
v 0.225000 0.420000 -0.219641
v -0.225000 0.450000 -0.135000
v -0.225000 0.490000 -0.175000
v -0.225000 0.450000 -0.215000
v -0.225000 0.410000 -0.175000
v -0.225000 0.455359 -0.155000
v -0.225000 0.470000 -0.169641
v -0.225000 0.440000 -0.225000
v -0.225000 0.400000 -0.185000
v -0.225000 0.420000 -0.219641
v -0.225000 0.405359 -0.205000
v -0.205000 0.890185 -0.253085
v -0.205000 0.900000 -0.265000
v 0.205000 0.890185 -0.253085
v 0.205000 0.900000 -0.265000
v 0.225000 0.900000 -0.265000
v 0.225000 0.890185 -0.253085
v -0.225000 0.890185 -0.253085
v -0.225000 0.900000 -0.265000
v -0.205000 0.000000 0.235000
v -0.205000 0.009905 0.223624
v 0.205000 0.009905 0.223624
v 0.205000 0.000000 0.235000
v -0.205000 0.009923 0.273760
v -0.205000 0.000000 0.265000
v 0.205000 0.009923 0.273760
v 0.205000 0.000000 0.265000
v 0.225000 0.000000 0.235000
v 0.225000 0.009905 0.223624
v 0.225000 0.009923 0.273760
v 0.225000 0.000000 0.265000
v -0.225000 0.009905 0.223624
v -0.225000 0.000000 0.235000
v -0.225000 0.000000 0.265000
v -0.225000 0.009923 0.273760
v 0.205000 0.009923 -0.223760
v 0.205000 0.000000 -0.235000
v -0.205000 0.000000 -0.235000
v -0.205000 0.009923 -0.223760
v 0.205000 0.000000 -0.265000
v 0.205000 0.009905 -0.273624
v -0.205000 0.009905 -0.273624
v -0.205000 0.000000 -0.265000
vn -0.0000 -0.0553 -0.9985
vn -0.0000 -0.1104 -0.9939
vn 1.0000 -0.0000 -0.0000
vn -1.0000 -0.0000 -0.0000
vn -0.0000 -0.9914 -0.1305
vn -0.0000 -0.8660 -0.5000
vn -0.0000 -0.7071 -0.7071
vn -0.0000 -0.2588 -0.9659
vn -0.0000 -0.1986 -0.9801
vn -0.0000 0.9914 0.1305
vn -0.0000 0.9659 0.2588
vn -0.0000 0.7071 0.7071
vn -0.0000 0.2588 0.9659
vn -0.0000 0.1305 0.9914
vn -0.0000 -1.0000 -0.0000
vn -0.0000 0.0621 0.9981
vn -0.0000 1.0000 -0.0000
vn -0.9999 -0.0000 -0.0126
vn -0.9992 -0.0000 -0.0408
vn -1.0000 -0.0000 -0.0098
vn 0.9992 -0.0000 -0.0408
vn 0.9999 -0.0000 -0.0126
vn 1.0000 -0.0000 -0.0098
vn -0.0000 0.2253 0.9743
vn -0.0000 -0.1305 -0.9914
vn -0.0000 -0.0654 -0.9979
vn -0.0000 0.0620 -0.9981
vn -0.0000 0.7719 0.6358
vn -0.0000 0.1915 0.9815
vn -0.0000 -0.6618 0.7497
vn -0.0000 -0.7542 -0.6567
vn -0.0000 -0.1376 -0.9905
vn -0.0000 0.1240 0.9923
vn -0.0000 -0.7497 0.6618
vn -0.0000 -0.6567 -0.7542
vn -0.0000 -0.1240 0.9923
vn -0.0000 0.1237 -0.9923
vt 0.625000 0.500000
vt 0.625000 0.250000
vt 0.375000 0.750000
vt 0.375000 0.750000
vt 0.375000 0.746739
vt 0.375000 0.724492
vt 0.575000 0.750000
vt 0.375000 0.024469
vt 0.375000 0.000000
vt 0.375000 0.000000
vt 0.548077 0.000000
vt 0.125000 0.721429
vt 0.375000 0.721429
vt 0.375000 0.735714
vt 0.125000 0.735714
vt 0.125000 0.750000
vt 0.125000 0.750000
vt 0.625000 0.750000
vt 0.875000 0.750000
vt 0.875000 0.750000
vt 0.625000 0.750000
vt 0.625000 1.000000
vt 0.525000 1.000000
vt 0.525000 0.750000
vt 0.425000 1.000000
vt 0.425000 0.750000
vt 0.425000 0.750000
vt 0.525000 0.750000
vt 0.608633 0.750000
vt 0.625000 0.750000
vt 0.875000 0.750000
vt 0.525000 1.000000
vt 0.125000 0.735714
vt 0.125000 0.750000
vt 0.125000 0.500000
vt 0.375000 0.500000
vt 0.375000 1.000000
vt 0.625000 0.750000
vt 0.625000 0.000000
vt 0.425000 0.000000
vt 0.525000 0.000000
vt 0.598205 0.000000
vt 0.375000 0.250000
vt 0.375000 0.250000
vt 0.404284 0.250000
vt 0.556408 0.250000
vt 0.375000 0.274390
vt 0.575000 0.500000
vt 0.475000 0.500000
vt 0.393948 0.500000
vt 0.375000 0.475610
vt 0.625000 0.500000
vt 0.625000 0.503261
vt 0.625000 0.525411
vt 0.425000 0.500000
vt 0.625000 0.500000
vt 0.625000 0.221429
vt 0.625000 0.235714
vt 0.625000 0.246172
vt 0.625000 0.250000
vt 0.425000 0.250000
vt 0.875000 0.528571
vt 0.875000 0.528572
vt 0.875000 0.514286
vt 0.875000 0.514286
vt 0.875000 0.500000
vt 0.875000 0.500000
vt 0.875000 0.500000
vt 0.625000 0.528571
vt 0.625000 0.514286
vt 0.625000 0.500000
vt 0.575000 0.250000
vt 0.475000 0.250000
vt 0.391367 0.250000
vt 0.391367 0.500000
vt 0.475000 0.500000
vt 0.875000 0.500000
vt 0.375000 0.750000
vt 0.375000 0.750000
vt 0.125000 0.750000
vt 0.125000 0.750000
vt 0.375000 1.000000
vt 0.375000 0.500000
vt 0.375000 0.500000
vt 0.375000 0.250000
vt 0.375000 0.250000
s 1
f 6/1/1 5/2/1 7/2/2 8/1/2
f 6/1/1 8/1/2 14/1/2 13/1/1
f 7/2/2 5/2/1 18/2/1 19/2/2
f 37/3/3 41/4/3 42/5/3 38/6/3 39/7/3 40/3/3
f 47/8/4 51/9/4 52/10/4 48/9/4 49/10/4 50/11/4
f 22/12/5 25/13/5 27/14/6 24/15/6
f 24/15/6 27/14/6 28/3/7 23/16/7
f 23/16/8 28/3/8 26/4/9 21/17/9
f 34/18/10 29/19/10 31/20/11 36/21/11
f 36/21/12 31/22/12 32/23/12 35/24/12
f 35/24/13 32/23/13 30/25/14 33/26/14
f 33/26/14 44/27/14 46/28/13 35/24/13
f 35/24/12 46/28/12 45/29/12 36/21/12
f 36/21/11 45/29/11 43/30/10 34/18/10
f 25/13/5 38/6/5 42/5/6 27/14/6
f 27/14/6 42/5/6 41/4/7 28/3/7
f 28/3/8 41/4/8 37/3/9 26/4/9
f 29/19/10 54/31/10 56/19/11 31/20/11
f 31/22/12 56/22/12 55/32/12 32/23/12
f 32/23/13 55/32/13 53/25/14 30/25/14
f 47/12/5 22/12/5 24/15/6 51/33/6
f 51/33/6 24/15/6 23/16/7 52/34/7
f 52/34/8 23/16/8 21/17/9 48/16/9
f 2/35/15 22/12/5 47/12/5 16/35/15
f 2/35/15 4/36/15 25/13/5 22/12/5
f 25/13/5 4/36/15 11/36/15 38/6/5
f 9/37/16 30/25/14 53/25/14 20/37/16
f 10/3/16 33/26/14 30/25/14 9/37/16
f 3/38/17 1/19/17 29/19/10 34/18/10
f 29/19/10 1/19/17 17/19/17 54/31/10
f 33/26/14 10/3/16 15/3/16 44/27/14
f 3/38/17 34/18/10 43/30/10 12/38/17
f 40/3/3 39/7/3 12/38/3 43/30/3 45/29/3 46/28/3 44/27/3 15/3/3
f 17/39/4 50/11/4 49/10/4 20/9/4 53/40/4 55/41/4 56/42/4 54/39/4
f 65/43/18 69/44/19 70/45/19 66/46/19 67/47/19 68/43/20
f 71/48/21 75/49/21 76/50/21 72/36/22 73/36/23 74/51/21
f 77/52/3 81/1/3 82/53/3 78/54/3 79/55/3 80/56/3
f 87/57/4 91/58/4 92/59/4 88/2/4 89/60/4 90/61/4
f 87/62/10 57/63/10 59/64/11 91/65/11
f 91/65/12 59/64/12 60/66/12 92/67/12
f 92/67/13 60/66/13 58/67/24 88/68/24
f 57/63/10 61/69/10 63/70/11 59/64/11
f 59/64/12 63/70/12 64/71/12 60/66/12
f 60/66/13 64/71/13 62/1/24 58/67/24
f 77/52/24 62/1/24 64/71/13 81/1/13
f 81/1/12 64/71/12 63/70/12 82/53/12
f 82/53/11 63/70/11 61/69/10 78/54/10
f 93/72/25 66/46/26 70/45/8 95/73/8
f 95/73/7 70/45/7 69/44/6 96/74/6
f 96/74/6 69/44/6 65/43/5 94/43/5
f 83/36/5 72/36/5 76/50/6 85/75/6
f 85/75/6 76/50/6 75/49/7 86/76/7
f 86/76/8 75/49/8 71/48/26 84/48/25
f 1/19/17 57/63/10 87/62/10 17/19/17
f 61/69/10 57/63/10 1/19/17 3/38/17
f 61/69/10 3/38/17 12/38/17 78/54/10
f 67/47/27 66/46/26 5/2/1 6/1/1 71/48/26 74/51/27
f 5/2/1 66/46/26 93/72/25 18/2/1
f 65/43/5 2/43/15 16/43/15 94/43/5
f 4/36/15 72/36/5 83/36/5 11/36/15
f 71/48/26 6/1/1 13/1/1 84/48/25
f 80/56/3 79/55/3 11/36/3 83/36/3 85/75/3 86/76/3 84/48/3 13/1/3
f 11/36/3 79/55/3 78/54/3 12/38/3 39/7/3 38/6/3
f 47/8/4 50/11/4 17/39/4 87/57/4 90/61/4 16/43/4
f 16/43/4 90/61/4 89/60/4 18/2/4 93/72/4 95/73/4 96/74/4 94/43/4
f 98/77/28 104/67/28 103/68/28 97/77/28
f 97/77/28 99/52/28 100/71/28 98/77/28
f 99/52/28 102/56/28 101/1/28 100/71/28
f 58/67/24 97/77/29 103/68/29 88/68/24
f 98/77/17 100/71/17 8/1/17 7/77/17
f 98/77/17 7/77/17 19/77/17 104/67/17
f 58/67/24 62/1/24 99/52/29 97/77/29
f 8/1/17 100/71/17 101/1/17 14/1/17
f 99/52/29 62/1/24 77/52/24 102/56/29
f 77/52/3 80/56/3 13/1/3 14/1/3 101/1/3 102/56/3
f 18/2/4 89/60/4 88/2/4 103/2/4 104/2/4 19/2/4
f 112/78/30 116/79/30 115/3/30 111/78/30
f 106/16/31 107/3/31 108/3/31 105/16/31
f 110/16/30 112/78/30 111/78/30 109/16/30
f 113/3/31 108/3/31 107/3/31 114/3/31
f 109/16/30 120/16/30 119/80/30 110/16/30
f 117/81/31 106/16/31 105/16/31 118/80/31
f 21/17/9 26/4/9 107/3/32 106/16/32
f 105/16/15 108/3/15 112/78/15 110/16/15
f 105/16/15 110/16/15 119/80/15 118/80/15
f 21/17/9 106/16/32 117/81/32 48/16/9
f 112/78/15 108/3/15 113/3/15 116/79/15
f 107/3/32 26/4/9 37/3/9 114/3/32
f 109/82/33 9/37/16 20/37/16 120/37/33
f 10/3/16 9/37/16 109/82/33 111/78/33
f 10/3/16 111/78/33 115/3/33 15/3/16
f 37/3/3 40/3/3 15/3/3 115/3/3 116/79/3 113/3/3 114/3/3
f 20/9/4 49/10/4 48/9/4 117/9/4 118/9/4 119/9/4 120/9/4
f 121/83/34 124/35/34 123/35/34 122/36/34
f 125/84/35 128/35/35 127/35/35 126/36/35
f 4/36/36 2/35/36 124/35/36 121/83/36
f 122/36/15 123/35/15 128/35/15 125/84/15
f 73/36/23 72/36/22 4/36/3 121/83/3 122/36/3 125/84/3 126/36/3
f 2/43/4 65/43/18 68/43/20 127/85/4 128/43/4 123/43/4 124/86/4
f 68/43/37 67/47/27 74/51/27 73/36/37 126/36/37 127/85/37
