# Blender 4.5.0
# www.blender.org
mtllib model1.mtl
o Cube
v 1.000000 1.000000 -1.000000
v 1.000000 -1.000000 -1.000000
v 1.000000 1.000000 1.000000
v 1.000000 -1.000000 1.000000
v -1.000000 1.000000 -1.000000
v -1.000000 -1.000000 -1.000000
v -1.000000 1.000000 1.000000
v -1.000000 -1.000000 1.000000
v 0.500000 2.500000 1.000000
v -0.500000 2.500000 1.000000
v 1.000000 2.000000 -1.000000
v -1.000000 2.000000 -1.000000
v 2.636591 1.000000 -1.000000
v 0.500000 3.500000 1.000000
v -0.500000 3.500000 1.000000
v 0.500000 2.500000 0.537809
v -0.500000 2.500000 0.537809
v 0.500000 3.500000 0.537809
v -0.500000 3.500000 0.537809
v 1.000000 3.800000 -1.000000
v 0.800000 4.000000 -0.800000
v 0.941421 3.941422 -0.941421
v -0.800000 4.000000 -0.800000
v -1.000000 3.800000 -1.000000
v -0.941421 3.941422 -0.941421
v 0.800000 4.000000 0.800000
v 0.941421 3.941422 0.941421
v -0.800000 4.000000 0.800000
v -0.941421 3.941422 0.941421
v 1.000000 2.000000 0.800000
v 0.800000 2.200000 1.000000
v 0.800000 2.000000 1.000000
v 1.141421 2.000000 1.141421
v 0.941421 2.058579 0.941421
v -0.800000 2.200000 1.000000
v -1.000000 2.000000 0.800000
v -1.000000 1.800000 1.000000
v -1.000000 2.000000 1.200000
v -0.800000 2.000000 1.000000
v -0.941421 2.058579 0.941421
v 0.800000 3.680000 1.000000
v 1.000000 3.800000 0.800000
v 0.941439 3.941378 0.941439
v 0.800000 3.800000 1.000000
v 0.941421 3.764853 0.941421
v -1.000000 3.800000 0.800000
v -0.800000 3.680000 1.000000
v -0.800000 3.800000 1.000000
v -0.941439 3.941378 0.941439
v -0.941421 3.764853 0.941421
v 2.157245 1.511914 2.157245
v 1.728639 2.000000 1.728639
v 1.674689 2.000000 2.230509
v 2.099823 1.755957 2.099823
v 1.942942 1.934609 1.942942
v 2.142912 2.000000 -1.000000
v 2.636591 1.511914 -1.000000
v 2.389752 1.934609 -1.000000
v 2.570451 1.755957 -1.000000
v -0.505665 2.000000 2.561539
v -1.000000 2.000000 2.136591
v -1.000000 1.500000 2.636591
v -0.855213 2.000000 2.468162
v -0.916804 1.915851 2.539811
v -1.000000 1.853553 2.490145
v -0.855213 1.853553 2.614609
v 2.157245 1.191070 2.157245
v 1.989459 1.000000 1.989459
v 2.185925 1.000000 1.968340
v 2.108102 1.055963 2.108102
v -1.000000 1.000000 2.443332
v -1.000000 1.191070 2.636591
v -1.000000 1.055963 2.579987
v 1.000000 0.333333 -1.000000
v 1.000000 -0.333333 -1.000000
v -1.000000 -0.333333 1.000000
v -1.000000 0.333333 1.000000
v 1.000000 0.333333 1.000000
v 1.000000 -0.333333 1.000000
v -1.000000 0.333333 -1.000000
v -1.000000 -0.333333 -1.000000
v 0.782505 0.333333 -0.782505
v 0.782505 -0.333333 -0.782505
v -0.782505 -0.333333 0.782505
v -0.782505 0.333333 0.782505
v 0.782505 0.333333 0.782505
v 0.782505 -0.333333 0.782505
v -0.782505 0.333333 -0.782505
v -0.782505 -0.333333 -0.782505
v 1.000000 3.800000 0.197095
v 1.000000 2.967986 0.800000
v 1.000000 3.478185 -0.356052
v 1.000000 3.117817 0.020630
v 1.000000 3.141165 -0.631473
v 1.000000 2.650049 -0.193480
v 1.000000 2.706712 -0.566097
v 1.000000 2.151639 0.032170
v 1.000000 2.761390 -0.006039
v 1.215970 3.117817 0.020630
v 1.215970 3.141165 -0.631473
v 1.215970 2.650049 -0.193480
v 1.215970 2.706712 -0.566097
v 1.215970 2.151639 0.032170
v 1.215970 2.761390 -0.006039
v 0.738357 3.478185 -0.356052
v 0.738357 2.967986 0.800000
v 0.738357 3.800000 0.197095
vn -0.0000 -0.0000 1.0000
vn -1.0000 -0.0000 -0.0000
vn -0.0000 -1.0000 -0.0000
vn 1.0000 -0.0000 -0.0000
vn -0.0000 -0.0000 -1.0000
vn -0.0000 1.0000 -0.0000
vn -0.0000 0.9239 0.3827
vn 0.3827 0.9239 -0.0000
vn -0.3827 0.9239 -0.0000
vn -0.0000 0.9239 -0.3827
vn -0.0000 0.3827 -0.9239
vn 0.2534 0.8652 0.4326
vn -0.8096 0.4965 0.3131
vn 0.6293 -0.0001 0.7771
vn -0.6293 -0.0001 0.7771
vn 0.3827 -0.0000 0.9239
vn 0.9239 -0.0000 0.3827
vn -0.3827 -0.0000 0.9239
vn -0.9239 -0.0000 0.3827
vn 0.9239 0.3827 -0.0000
vn -0.0000 0.3827 0.9239
vn -0.9239 0.3827 -0.0000
vn 0.4342 0.3019 0.8487
vn 0.5443 0.7701 0.3326
vn 0.2655 0.9637 0.0285
vn 0.2559 0.9659 0.0388
vn 0.6991 0.7071 0.1061
vn 0.9550 0.2588 0.1450
vn -0.1792 0.6957 0.6957
vn -0.6609 0.6957 0.2815
vn -0.6232 0.2934 0.7249
vn 0.6876 -0.4557 0.5653
vn 0.0421 -0.9192 0.3915
vn 0.1387 -0.3827 0.9134
vn 0.0574 -0.9239 0.3783
vn 0.1501 -0.0000 0.9887
vn 0.9887 -0.0000 0.1501
vn -0.0000 -0.8644 0.5029
vn -0.0000 0.0625 0.9980
vn -0.0000 0.9886 0.1503
vn -0.0000 0.9994 0.0358
vn -0.0000 -0.0746 0.9972
vn -0.0000 -0.7331 -0.6801
vn -0.0000 -0.6656 -0.7463
vn -0.0000 -0.5868 -0.8098
vn -0.0000 0.9149 0.4038
vt 0.541667 0.750000
vt 0.625000 0.750000
vt 0.625000 1.000000
vt 0.541667 1.000000
vt 0.541667 0.000000
vt 0.625000 0.000000
vt 0.625000 0.250000
vt 0.541667 0.250000
vt 0.125000 0.500000
vt 0.375000 0.500000
vt 0.375000 0.750000
vt 0.125000 0.750000
vt 0.541667 0.500000
vt 0.625000 0.500000
vt 0.687500 0.750000
vt 0.687500 0.750000
vt 0.812500 0.750000
vt 0.812500 0.750000
vt 0.650000 0.725000
vt 0.850000 0.725000
vt 0.870028 0.747649
vt 0.628661 0.746339
vt 0.650000 0.525000
vt 0.626731 0.501731
vt 0.850000 0.525000
vt 0.871339 0.503661
vt 0.625000 0.250000
vt 0.625000 0.500000
vt 0.625000 0.250000
vt 0.625000 0.725000
vt 0.625000 0.749394
vt 0.649158 0.750000
vt 0.650000 0.750000
vt 0.625000 0.750000
vt 0.625000 0.000000
vt 0.625000 0.024712
vt 0.650000 0.750000
vt 0.625451 0.750000
vt 0.625000 0.725220
vt 0.628660 0.746340
vt 0.650000 0.750000
vt 0.625000 0.025000
vt 0.625000 0.000816
vt 0.625000 0.007320
vt 0.625000 0.725118
vt 0.850000 0.750000
vt 0.850000 0.750000
vt 0.875000 0.750000
vt 0.875000 0.750000
vt 0.850000 0.750000
vt 0.625000 0.629030
vt 0.625000 0.624291
vt 0.625000 0.627647
vt 0.625000 0.546091
vt 0.625000 0.649783
vt 0.625000 0.580557
vt 0.870030 0.747650
vt 0.850000 0.750000
vt 0.625000 0.007322
vt 0.625000 0.750000
vt 0.645415 0.767795
vt 0.625000 0.764069
vt 0.625000 0.788210
vt 0.625000 0.778137
vt 0.625000 0.500000
vt 0.625000 0.750000
vt 0.625000 0.500000
vt 0.625000 0.746230
vt 0.625000 0.500388
vt 0.625000 0.500000
vt 0.832568 0.753289
vt 0.861528 0.750718
vt 0.866787 0.750637
vt 0.862572 0.750963
vt 0.625000 1.000000
vt 0.625749 0.987787
vt 0.625090 0.998189
vt 0.625000 0.750000
vt 0.625191 0.753035
vt 0.625000 0.735042
vt 0.625000 0.761015
vt 0.625000 0.999335
vt 0.625000 0.753226
vt 0.628773 0.957084
vt 0.375000 0.250000
vt 0.458333 0.250000
vt 0.458333 0.500000
vt 0.458333 0.750000
vt 0.375000 0.000000
vt 0.458333 0.000000
vt 0.458333 1.000000
vt 0.375000 1.000000
vt 0.625000 0.554257
vt 0.625000 0.600847
s 0
usemtl Material
f 78/1/1 3/2/1 7/3/1 77/4/1
f 77/5/2 7/6/2 5/7/2 80/8/2
f 6/9/3 2/10/3 4/11/3 8/12/3
f 74/13/4 1/14/4 3/2/4 78/1/4
f 80/8/5 5/7/5 1/14/5 74/13/5
f 1/14/5 5/7/5 12/7/5 11/14/5
f 9/15/2 14/16/2 18/16/2 16/15/2
f 17/17/1 16/15/1 18/16/1 19/18/1
f 10/17/6 9/15/6 16/15/6 17/17/6
f 15/18/4 10/17/4 17/17/4 19/18/4
f 14/16/3 15/18/3 19/18/3 18/16/3
f 26/19/7 28/20/7 29/21/7 27/22/7
f 21/23/8 26/19/8 27/22/8 22/24/8
f 28/20/9 23/25/9 25/26/9 29/21/9
f 23/25/10 21/23/10 22/24/10 25/26/10
f 25/27/11 22/24/11 20/28/11 24/29/11
f 21/23/6 23/25/6 28/20/6 26/19/6
f 11/14/5 12/7/5 24/29/5 20/28/5
f 30/30/12 34/31/12 31/32/12 32/33/12 33/34/12
f 35/6/13 40/35/13 36/36/13 37/6/13 38/6/13 39/6/13
f 41/37/14 45/38/14 42/39/14 43/40/14 44/41/14
f 46/42/15 50/43/15 47/6/15 48/6/15 49/44/15
f 41/37/16 31/32/16 34/31/16 45/38/16
f 45/38/17 34/31/17 30/30/17 91/45/17 42/39/17
f 35/46/18 47/47/18 50/48/18 40/49/18
f 40/35/19 50/43/19 46/42/19 36/36/19
f 9/15/1 10/17/1 35/46/1 39/50/1 32/33/1 31/32/1
f 14/16/1 9/15/1 31/32/1 41/37/1
f 30/30/4 97/51/4 98/52/4 93/53/4 94/54/4 20/28/4 90/55/4 92/56/4 91/45/4
f 5/7/2 7/6/2 37/6/2 36/36/2 12/7/2
f 10/17/1 15/18/1 47/47/1 35/46/1
f 12/7/2 36/36/2 46/42/2 24/29/2
f 22/24/20 27/22/20 43/40/20 42/39/20 90/55/20 20/28/20
f 27/22/21 29/21/21 49/57/21 48/58/21 44/41/21 43/40/21
f 15/18/1 14/16/1 41/37/1 44/41/1 48/58/1 47/47/1
f 29/59/22 25/27/22 24/29/22 46/42/22 49/44/22
f 51/60/23 54/2/23 53/61/23
f 54/2/24 55/62/24 53/63/24
f 55/62/25 52/64/25 53/63/25
f 56/65/26 52/2/26 55/66/26 58/67/26
f 58/67/27 55/66/27 54/68/27 59/69/27
f 59/69/28 54/68/28 51/60/28 57/70/28
f 11/14/6 30/30/6 33/34/6 52/2/6 56/65/6
f 1/14/5 11/14/5 56/65/5 58/67/5 59/69/5 57/70/5 13/14/5
f 60/71/29 63/72/29 64/73/29 66/74/29
f 61/6/30 65/6/30 64/6/30 63/6/30
f 62/75/31 66/76/31 64/3/31 65/77/31
f 33/34/6 32/33/6 39/50/6 38/49/6 61/49/6 63/72/6 60/71/6 53/61/6 52/2/6
f 67/78/32 70/79/32 69/80/32
f 70/79/33 68/81/33 69/80/33
f 67/78/34 72/3/34 73/82/34 70/83/34
f 70/83/35 73/82/35 71/75/35 68/2/35
f 72/3/36 67/78/36 51/60/36 53/61/36 60/84/36 66/76/36 62/75/36
f 7/3/3 3/2/3 68/2/3 71/75/3
f 67/78/37 69/80/37 13/14/37 57/70/37 51/60/37
f 3/2/3 1/14/3 13/14/3 69/80/3 68/2/3
f 38/6/2 37/6/2 7/6/2 71/6/2 73/6/2 72/6/2 62/6/2 65/6/2 61/6/2
f 6/85/5 81/86/5 75/87/5 2/10/5
f 77/5/3 80/8/3 88/8/3 85/5/3
f 2/10/4 75/87/4 79/88/4 4/11/4
f 78/1/3 77/4/3 85/4/3 86/1/3
f 8/89/2 76/90/2 81/86/2 6/85/2
f 75/87/6 81/86/6 89/86/6 83/87/6
f 4/11/1 79/88/1 76/91/1 8/92/1
f 79/88/6 75/87/6 83/87/6 87/88/6
f 89/86/5 88/8/5 82/13/5 83/87/5
f 83/87/4 82/13/4 86/1/4 87/88/4
f 84/90/2 85/5/2 88/8/2 89/86/2
f 87/88/1 86/1/1 85/4/1 84/91/1
f 74/13/3 78/1/3 86/1/3 82/13/3
f 80/8/3 74/13/3 82/13/3 88/8/3
f 76/91/6 79/88/6 87/88/6 84/91/6
f 81/86/6 76/90/6 84/90/6 89/86/6
f 102/93/4 101/94/4 100/54/4 99/53/4 104/52/4 103/51/4
f 91/45/4 90/55/4 42/39/4
f 92/56/38 90/55/38 107/55/38 105/56/38
f 20/28/4 94/54/4 95/94/4 96/93/4 97/51/4 30/30/4 11/14/4
f 98/52/39 97/51/39 103/51/39 104/52/39
f 96/93/40 95/94/40 101/94/40 102/93/40
f 94/54/41 93/53/41 99/53/41 100/54/41
f 93/53/42 98/52/42 104/52/42 99/53/42
f 97/51/43 96/93/43 102/93/43 103/51/43
f 95/94/44 94/54/44 100/54/44 101/94/44
f 106/45/4 105/56/4 107/55/4
f 90/55/45 91/45/45 106/45/45 107/55/45
f 91/45/46 92/56/46 105/56/46 106/45/46
